#VRML V2.0 utf8
Transform { translation 0.0 0.0 1.2992125984251968 children [ Shape { appearance Appearance { material Material { diffuseColor 0.10 0.12 0.13 } } geometry Box { size 10.393700787401574 9.960629921259843 2.5984251968503935 } } ] }
Transform { translation 1.220472440944882 -2.8937007874015745 -0.5905511811023622 children [ Shape { appearance Appearance { material Material { diffuseColor 0.7 0.7 0.72 } } geometry Box { size 0.23622047244094488 0.23622047244094488 1.1811023622047243 } } ] }
Transform { translation 0.4330708661417323 -2.8937007874015745 -0.5905511811023622 children [ Shape { appearance Appearance { material Material { diffuseColor 0.7 0.7 0.72 } } geometry Box { size 0.23622047244094488 0.23622047244094488 1.1811023622047243 } } ] }
Transform { translation -0.3543307086614173 -2.8937007874015745 -0.5905511811023622 children [ Shape { appearance Appearance { material Material { diffuseColor 0.7 0.7 0.72 } } geometry Box { size 0.23622047244094488 0.23622047244094488 1.1811023622047243 } } ] }
Transform { translation -1.141732283464567 -2.8937007874015745 -0.5905511811023622 children [ Shape { appearance Appearance { material Material { diffuseColor 0.7 0.7 0.72 } } geometry Box { size 0.23622047244094488 0.23622047244094488 1.1811023622047243 } } ] }
Transform { translation -1.9291338582677167 -2.8937007874015745 -0.5905511811023622 children [ Shape { appearance Appearance { material Material { diffuseColor 0.7 0.7 0.72 } } geometry Box { size 0.23622047244094488 0.23622047244094488 1.1811023622047243 } } ] }
Transform { translation -1.9291338582677167 3.0118110236220472 -0.5905511811023622 children [ Shape { appearance Appearance { material Material { diffuseColor 0.7 0.7 0.72 } } geometry Box { size 0.23622047244094488 0.23622047244094488 1.1811023622047243 } } ] }
Transform { translation -1.141732283464567 3.0118110236220472 -0.5905511811023622 children [ Shape { appearance Appearance { material Material { diffuseColor 0.7 0.7 0.72 } } geometry Box { size 0.23622047244094488 0.23622047244094488 1.1811023622047243 } } ] }
Transform { translation -0.3543307086614173 3.0118110236220472 -0.5905511811023622 children [ Shape { appearance Appearance { material Material { diffuseColor 0.7 0.7 0.72 } } geometry Box { size 0.23622047244094488 0.23622047244094488 1.1811023622047243 } } ] }
Transform { translation 0.4330708661417323 3.0118110236220472 -0.5905511811023622 children [ Shape { appearance Appearance { material Material { diffuseColor 0.7 0.7 0.72 } } geometry Box { size 0.23622047244094488 0.23622047244094488 1.1811023622047243 } } ] }
Transform { translation 1.220472440944882 3.0118110236220472 -0.5905511811023622 children [ Shape { appearance Appearance { material Material { diffuseColor 0.7 0.7 0.72 } } geometry Box { size 0.23622047244094488 0.23622047244094488 1.1811023622047243 } } ] }
Transform { translation 2.795275590551181 3.0118110236220472 -0.5905511811023622 children [ Shape { appearance Appearance { material Material { diffuseColor 0.7 0.7 0.72 } } geometry Box { size 0.23622047244094488 0.23622047244094488 1.1811023622047243 } } ] }
